<svg width="19" height="18" viewBox="0 0 19 18" fill="none" xmlns="http://www.w3.org/2000/svg">
<path d="M17.3829 5.99291C17.2672 6.01789 15.7146 6.37966 13.7253 7.63432C13.4264 6.18443 12.5419 3.46972 9.92433 0.708749L9.2526 0L8.58086 0.709674C5.95405 3.48083 5.0732 6.20294 4.77712 7.66207C2.78041 6.38614 1.23985 6.01974 1.12697 5.99383L0 5.74216V6.89688C0 13.642 3.63164 18 9.2526 18C14.7866 18 18.5052 13.5384 18.5052 6.89688V5.74771L17.3829 5.99291ZM6.47589 8.78256C6.47774 8.75203 6.61653 5.91426 9.2526 2.73877C11.8563 5.88465 12.0274 8.74741 12.0284 8.74741V8.86306C10.9908 9.72533 10.0562 10.7046 9.24334 11.7813C8.42817 10.7236 7.50021 9.75779 6.47589 8.901V8.78256ZM9.2526 16.1495C4.33392 16.1495 2.26781 12.2671 1.90881 8.22556C3.44012 8.88989 6.17981 10.4702 8.48463 13.8909L9.26277 15.0466L10.0261 13.8807C12.2708 10.4499 15.0456 8.87416 16.5918 8.2163C16.2235 12.1283 14.1602 16.1495 9.2526 16.1495Z" fill="#7C858E"/>
</svg>
