<svg width="17" height="18" viewBox="0 0 17 18" fill="none" xmlns="http://www.w3.org/2000/svg">
<mask id="path-1-inside-1_756_35886" fill="white">
<path d="M16.6155 8.93887L6.92322 18V14.8286C6.92353 14.327 7.0211 13.8317 7.20895 13.378C7.3968 12.9243 7.67031 12.5233 8.00997 12.2038L11.4787 8.93887L8.03525 5.77467C7.68815 5.45594 7.40812 5.05284 7.2157 4.59491C7.02328 4.13699 6.92334 3.63585 6.92322 3.12825V0L16.6155 8.93887Z"/>
</mask>
<path d="M16.6155 8.93887L20.0301 12.5913L23.9636 8.91399L20.0053 5.26337L16.6155 8.93887ZM6.92322 18H1.92322V29.5191L10.3378 21.6525L6.92322 18ZM6.92322 14.8286L1.92322 14.8255V14.8286H6.92322ZM8.00997 12.2038L11.4362 15.8453L11.4369 15.8447L8.00997 12.2038ZM11.4787 8.93887L14.9056 12.5798L18.8206 8.89492L14.8618 5.25719L11.4787 8.93887ZM8.03525 5.77467L11.4183 2.09299L11.4171 2.09182L8.03525 5.77467ZM6.92322 3.12825H1.92322V3.12946L6.92322 3.12825ZM6.92322 0L10.313 -3.6755L1.92322 -11.4131V0H6.92322ZM13.2009 5.28641L3.50861 14.3475L10.3378 21.6525L20.0301 12.5913L13.2009 5.28641ZM11.9232 18V14.8286H1.92322V18H11.9232ZM11.9232 14.8317C11.9231 14.9711 11.8969 15.1258 11.8287 15.2907L2.58924 11.4653C2.14529 12.5376 1.92394 13.683 1.92322 14.8255L11.9232 14.8317ZM11.8287 15.2907C11.7603 15.4559 11.6395 15.6541 11.4362 15.8453L4.58377 8.56216C3.70114 9.3926 3.03335 10.3927 2.58924 11.4653L11.8287 15.2907ZM11.4369 15.8447L14.9056 12.5798L8.05182 5.29796L4.58306 8.56284L11.4369 15.8447ZM14.8618 5.25719L11.4183 2.09299L4.65217 9.45635L8.09566 12.6206L14.8618 5.25719ZM11.4171 2.09182C11.6286 2.28607 11.7543 2.48895 11.8253 2.65797L2.60611 6.53186C3.06197 7.61672 3.7477 8.62581 4.65344 9.45752L11.4171 2.09182ZM11.8253 2.65797C11.8961 2.82654 11.9232 2.98479 11.9232 3.12703L1.92322 3.12946C1.9235 4.28691 2.15044 5.44744 2.60611 6.53186L11.8253 2.65797ZM11.9232 3.12825V0H1.92322V3.12825H11.9232ZM3.53343 3.6755L13.2257 12.6144L20.0053 5.26337L10.313 -3.6755L3.53343 3.6755Z" fill="#7C858E" mask="url(#path-1-inside-1_756_35886)"/>
<mask id="path-3-inside-2_756_35886" fill="white">
<path d="M8.30769 8.94843L0 16.6155V13.932C0.000269589 13.5076 0.0838957 13.0885 0.244912 12.7046C0.405928 12.3207 0.640366 11.9814 0.931502 11.711L3.90473 8.94843L0.95317 6.27103C0.655655 6.00133 0.415628 5.66024 0.250696 5.27277C0.0857647 4.88529 0.000105407 4.46125 0 4.03174V1.38477L8.30769 8.94843Z"/>
</mask>
<path d="M8.30769 8.94843L11.6987 12.6228L15.7072 8.92339L11.6738 5.25121L8.30769 8.94843ZM0 16.6155H-5V28.0339L3.39104 20.2899L0 16.6155ZM0 13.932L-5 13.9289V13.932H0ZM0.931502 11.711L4.33419 15.3746L4.33491 15.3739L0.931502 11.711ZM3.90473 8.94843L7.30813 12.6113L11.2979 8.90422L7.26408 5.24509L3.90473 8.94843ZM0.95317 6.27103L4.31252 2.56769L4.31124 2.56652L0.95317 6.27103ZM0 4.03174H-5V4.03297L0 4.03174ZM0 1.38477L3.3661 -2.31245L-5 -9.92929V1.38477H0ZM4.91666 5.27407L-3.39104 12.9412L3.39104 20.2899L11.6987 12.6228L4.91666 5.27407ZM5 16.6155V13.932H-5V16.6155H5ZM5 13.9352C4.99986 14.1606 4.95627 14.3989 4.85581 14.6384L-4.36598 10.7708C-4.78848 11.7782 -4.99932 12.8547 -5 13.9289L5 13.9352ZM4.85581 14.6384C4.75515 14.8784 4.58911 15.1378 4.33419 15.3746L-2.47118 8.04745C-3.30838 8.82503 -3.94329 9.76295 -4.36598 10.7708L4.85581 14.6384ZM4.33491 15.3739L7.30813 12.6113L0.501322 5.28553L-2.4719 8.04812L4.33491 15.3739ZM7.26408 5.24509L4.31252 2.56769L-2.40619 9.97437L0.545373 12.6518L7.26408 5.24509ZM4.31124 2.56652C4.57528 2.80587 4.74721 3.07006 4.85126 3.31451L-4.34987 7.23103C-3.91596 8.25043 -3.26397 9.19679 -2.40491 9.97553L4.31124 2.56652ZM4.85126 3.31451C4.95508 3.5584 4.99994 3.80121 5 4.03052L-5 4.03297C-4.99973 5.1213 -4.78355 6.21219 -4.34987 7.23103L4.85126 3.31451ZM5 4.03174V1.38477H-5V4.03174H5ZM-3.3661 5.08198L4.9416 12.6456L11.6738 5.25121L3.3661 -2.31245L-3.3661 5.08198Z" fill="#7C858E" mask="url(#path-3-inside-2_756_35886)"/>
</svg>
