<svg width="20" height="12" viewBox="0 0 20 12" fill="none" xmlns="http://www.w3.org/2000/svg">
<path d="M9.83087 0C5.24318 0 0.600098 1.42708 0.600098 4.15385V7.84615C0.600098 10.5729 5.24318 12 9.83087 12C14.4186 12 19.0616 10.5729 19.0616 7.84615V4.15385C19.0616 1.42708 14.4186 0 9.83087 0ZM2.44625 7.84615V6.74123C3.03088 7.07232 3.64994 7.33851 4.29241 7.53508V9.27139C3.08133 8.79692 2.44625 8.232 2.44625 7.84615ZM13.5232 7.98277V9.80215C12.7229 9.96738 11.7998 10.0883 10.7539 10.1326V8.28646C11.6829 8.24947 12.6082 8.148 13.5232 7.98277ZM8.90779 10.1335C7.97734 10.0979 7.05127 9.98739 6.13856 9.80308V7.98369C7.02379 8.14431 7.95887 8.24862 8.90779 8.28831V10.1335ZM15.3693 9.27139V7.53508C16.0119 7.33892 16.6311 7.0727 17.2155 6.74123V7.84615C17.2155 8.232 16.5813 8.79692 15.3693 9.27139ZM9.83087 6.46154C5.0521 6.46154 2.44625 4.93754 2.44625 4.15385C2.44625 3.37015 5.0521 1.84615 9.83087 1.84615C14.6096 1.84615 17.2155 3.37015 17.2155 4.15385C17.2155 4.93754 14.6096 6.46154 9.83087 6.46154Z" fill="#24272A"/>
<ellipse cx="9.9" cy="3.9" rx="3.9" ry="0.9" fill="#24272A"/>
<path d="M9.23077 0C4.64308 0 0 1.42708 0 4.15385V7.84615C0 10.5729 4.64308 12 9.23077 12C13.8185 12 18.4615 10.5729 18.4615 7.84615V4.15385C18.4615 1.42708 13.8185 0 9.23077 0ZM1.84615 7.84615V6.74123C2.43078 7.07232 3.04984 7.33851 3.69231 7.53508V9.27139C2.48123 8.79692 1.84615 8.232 1.84615 7.84615ZM12.9231 7.98277V9.80215C12.1228 9.96738 11.1997 10.0883 10.1538 10.1326V8.28646C11.0828 8.24947 12.0081 8.148 12.9231 7.98277ZM8.30769 10.1335C7.37724 10.0979 6.45117 9.98739 5.53846 9.80308V7.98369C6.42369 8.14431 7.35877 8.24862 8.30769 8.28831V10.1335ZM14.7692 9.27139V7.53508C15.4118 7.33892 16.031 7.0727 16.6154 6.74123V7.84615C16.6154 8.232 15.9812 8.79692 14.7692 9.27139ZM9.23077 6.46154C4.452 6.46154 1.84615 4.93754 1.84615 4.15385C1.84615 3.37015 4.452 1.84615 9.23077 1.84615C14.0095 1.84615 16.6154 3.37015 16.6154 4.15385C16.6154 4.93754 14.0095 6.46154 9.23077 6.46154Z" fill="#7C858E"/>
<ellipse cx="9.2999" cy="3.9" rx="3.9" ry="0.9" fill="#7C858E"/>
</svg>
